<?xml version="1.0" standalone="no"?>
<!DOCTYPE svg PUBLIC "-//W3C//DTD SVG 20010904//EN"
 "http://www.w3.org/TR/2001/REC-SVG-20010904/DTD/svg10.dtd">
<svg version="1.0" xmlns="http://www.w3.org/2000/svg"
 width="600.000000pt" height="600.000000pt" viewBox="0 0 600.000000 600.000000"
 preserveAspectRatio="xMidYMid meet">
<metadata>
Created by potrace 1.14, written by Peter Selinger 2001-2017
</metadata>
<g transform="translate(0.000000,600.000000) scale(0.100000,-0.100000)"
fill="#000000" stroke="none">
<path d="M4885 5191 c-106 -26 -197 -139 -212 -259 -3 -26 -6 -48 -7 -49 0 0
-19 5 -40 12 -64 22 -172 14 -233 -18 -64 -33 -87 -66 -87 -121 2 -104 102
-192 245 -218 l58 -10 -47 -38 c-111 -89 -146 -147 -147 -246 0 -61 4 -76 28
-113 48 -72 147 -97 225 -57 l29 15 0 -439 0 -440 -719 0 c-677 0 -718 1 -719
18 0 9 -1 295 -2 635 l-2 619 -33 29 c-42 37 -104 40 -144 6 -15 -12 -171
-195 -348 -407 -177 -212 -373 -446 -435 -520 -92 -109 -349 -417 -587 -701
-20 -24 -50 -60 -66 -79 -16 -19 -82 -98 -147 -175 -64 -77 -126 -151 -138
-165 -12 -14 -77 -92 -145 -174 l-124 -148 -20 33 c-82 137 -201 176 -280 91
-70 -75 -76 -160 -22 -331 7 -23 6 -23 -17 -8 -74 47 -209 66 -285 40 -71 -24
-133 -100 -136 -166 -4 -118 113 -210 248 -194 24 2 44 3 44 1 0 -2 -13 -22
-28 -46 -23 -34 -73 -143 -78 -168 0 -3 -4 -16 -7 -30 -23 -91 -9 -145 50
-185 69 -46 165 -30 234 39 35 36 99 146 99 172 0 27 17 14 50 -38 89 -138
189 -202 278 -179 175 48 198 320 37 448 -19 15 -35 30 -35 33 0 3 15 7 33 8
74 6 159 40 208 84 76 67 93 172 39 246 -33 46 -87 78 -149 88 -23 4 -41 9
-41 11 0 4 234 288 250 303 3 3 72 86 155 185 82 99 152 182 155 185 3 3 163
194 355 425 192 231 352 422 355 425 4 3 107 125 229 273 123 147 225 267 227
267 2 0 4 -326 4 -725 l0 -725 -461 0 c-413 0 -464 -2 -489 -17 -70 -41 -42
-171 37 -174 15 0 227 -1 471 -1 l442 -1 0 -378 c0 -251 4 -386 11 -402 28
-61 118 -75 171 -28 l33 29 2 614 c1 337 2 624 2 638 l1 25 718 0 717 0 1
-622 c1 -673 1 -670 55 -698 48 -25 87 -19 125 19 l34 34 0 1161 0 1161 51
-50 c55 -54 96 -71 148 -59 80 18 125 81 124 173 -1 70 -21 118 -84 204 l-40
52 48 1 c97 1 200 25 248 58 53 36 78 82 78 141 -1 83 -63 167 -151 207 -52
23 -186 23 -231 0 -19 -9 -36 -16 -37 -14 -2 2 6 28 18 58 31 81 31 189 -2
253 -40 78 -117 116 -195 97z m98 -134 c27 -35 25 -116 -4 -192 -16 -45 -39
-76 -86 -124 l-64 -64 -30 62 c-48 103 -34 226 34 300 60 64 112 70 150 18z
m-373 -269 c45 -20 64 -42 83 -100 9 -27 15 -48 14 -49 -1 -1 -22 -3 -47 -4
-106 -8 -232 44 -246 102 -11 44 41 74 121 68 22 -1 56 -9 75 -17z m700 -99
c56 -31 87 -98 62 -135 -25 -39 -177 -70 -289 -59 -65 6 -143 31 -143 45 0 9
97 104 130 127 40 28 119 51 162 47 23 -2 57 -14 78 -25z m-612 -326 c1 -104
-19 -162 -68 -192 -48 -29 -101 -8 -115 46 -7 31 11 88 39 125 22 28 122 108
135 108 4 0 8 -39 9 -87z m258 35 c95 -74 193 -235 176 -288 -8 -25 -34 -50
-52 -50 -10 0 -35 20 -56 44 -103 117 -114 139 -114 237 0 43 4 79 9 79 4 0
21 -10 37 -22z m-4045 -2195 c38 -23 78 -81 85 -124 4 -26 1 -40 -16 -59 -12
-14 -34 -40 -47 -57 -14 -18 -30 -33 -35 -33 -5 0 -21 26 -36 58 -32 71 -37
163 -9 205 21 32 21 32 58 10z m452 -227 c51 -21 70 -49 63 -90 -13 -67 -109
-116 -229 -116 -58 0 -137 17 -137 29 1 12 143 176 159 183 28 12 110 9 144
-6z m-723 -107 c43 -14 87 -37 122 -66 31 -24 35 -20 -62 -54 -30 -11 -68 -22
-85 -26 -121 -25 -215 32 -174 106 30 53 108 69 199 40z m194 -269 c12 -81
-81 -289 -146 -325 -30 -16 -40 -17 -62 -7 -33 15 -33 41 -3 125 43 118 96
191 167 227 19 10 36 17 37 17 0 -1 4 -18 7 -37z m201 26 c149 -39 232 -130
223 -243 -4 -47 -10 -61 -36 -84 -17 -15 -39 -26 -49 -24 -10 2 -21 4 -24 4
-15 2 -85 81 -124 141 -47 74 -76 140 -80 188 -3 38 9 40 90 18z"/>
</g>
</svg>
