<?xml version="1.0" standalone="no"?>
<!DOCTYPE svg PUBLIC "-//W3C//DTD SVG 20010904//EN"
 "http://www.w3.org/TR/2001/REC-SVG-20010904/DTD/svg10.dtd">
<svg version="1.0" xmlns="http://www.w3.org/2000/svg"
 width="600.000000pt" height="600.000000pt" viewBox="0 0 600.000000 600.000000"
 preserveAspectRatio="xMidYMid meet">
<metadata>
Created by potrace 1.14, written by Peter Selinger 2001-2017
</metadata>
<g transform="translate(0.000000,600.000000) scale(0.100000,-0.100000)"
fill="#000000" stroke="none">
<path d="M2959 5028 c-1 -585 -5 -959 -10 -938 -5 19 -11 51 -15 70 -6 38 -20
93 -54 210 -12 41 -23 82 -25 90 -5 21 -60 179 -75 215 -7 17 -16 39 -20 50
-24 60 -119 240 -163 305 -115 172 -342 406 -497 513 -218 149 -344 215 -504
263 -82 25 -243 59 -326 69 -25 3 -61 7 -80 10 -155 20 -293 25 -767 31 l-423
5 0 -719 0 -718 113 -1 c122 0 353 -11 389 -19 13 -2 54 -9 92 -14 37 -6 71
-12 75 -14 3 -2 23 -7 43 -10 63 -10 230 -67 303 -103 166 -83 268 -184 339
-335 28 -60 60 -186 72 -278 6 -54 8 -549 2 -556 -3 -2 -903 -12 -1281 -14
l-147 0 2 -257 3 -258 715 2 715 3 -1 -455 c-2 -443 -2 -455 -23 -481 -18 -23
-84 -98 -211 -239 -25 -27 -49 -55 -55 -61 -92 -104 -143 -161 -155 -174 -8
-9 -46 -52 -85 -96 -38 -43 -86 -97 -106 -119 -20 -22 -96 -107 -170 -190
-174 -196 -181 -203 -204 -229 -11 -12 -47 -53 -80 -91 -33 -37 -71 -80 -85
-95 -14 -15 -50 -55 -80 -90 -30 -35 -60 -68 -67 -75 -6 -6 -34 -38 -62 -70
-48 -54 -51 -62 -51 -112 l0 -53 3000 0 3000 0 0 34 c0 30 -17 54 -131 183
-73 81 -137 153 -143 158 -6 6 -36 39 -66 75 -30 36 -60 70 -65 75 -6 6 -42
46 -81 90 -38 44 -71 82 -74 85 -3 3 -41 46 -85 95 -44 50 -94 106 -111 125
-17 19 -87 98 -155 175 -68 77 -126 142 -129 145 -3 3 -52 59 -110 125 -58 65
-112 126 -120 135 -8 9 -40 45 -72 80 -31 36 -70 81 -87 100 l-31 35 0 462 0
462 728 -1 727 -2 3 257 2 257 -612 1 c-337 1 -666 1 -730 1 l-118 -1 0 1425
0 1424 -790 0 -790 0 -1 -972z"/>
</g>
</svg>
